<svg width="34" height="34" viewBox="0 0 34 34" fill="none" xmlns="http://www.w3.org/2000/svg">
<g clip-path="url(#clip0_4540_10095)">
<path d="M31.4819 0.000976562H2.50962C1.12625 0.000976562 0 1.09854 0 2.45004V31.5455C0 32.9002 1.12625 33.9999 2.50962 33.9999H31.484C32.8706 33.9999 34 32.9002 34 31.5455V2.45004C34 1.09854 32.8706 0.000976562 31.4819 0.000976562Z" fill="#0177B5"/>
<path d="M5.04136 12.7469H10.0935V28.9713H5.04136V12.7469ZM7.56373 4.67188C9.17555 4.67188 10.4856 5.98194 10.4856 7.59375C10.4856 9.20556 9.17555 10.5188 7.5648 10.5188C6.78944 10.5171 6.04631 10.2084 5.49795 9.66029C4.94959 9.11213 4.64064 8.36911 4.63867 7.59375C4.63867 7.20978 4.71435 6.82957 4.86139 6.47486C5.00843 6.12016 5.22394 5.79791 5.4956 5.52655C5.76725 5.25518 6.08974 5.04003 6.4446 4.89338C6.79947 4.74673 7.17976 4.67146 7.56373 4.67188ZM13.2481 12.7469H18.0846V14.9643H18.1515C18.8252 13.6893 20.4699 12.3442 22.9328 12.3442C28.0392 12.3442 28.9816 15.7049 28.9816 20.0728V28.9723H23.9422V21.0801C23.9422 19.1994 23.9082 16.7769 21.322 16.7769C18.6977 16.7769 18.2939 18.8276 18.2939 20.9419V28.9681H13.2555V12.7437L13.2481 12.7469Z" fill="white"/>
</g>
<defs>
<clipPath id="clip0_4540_10095">
<rect width="34" height="34" fill="white"/>
</clipPath>
</defs>
</svg>
